<svg xmlns="http://www.w3.org/2000/svg" x="0px" y="0px"
width="32" height="32"
viewBox="0 0 24 24"
style=" fill:#000000;"><path d="M4,19c-1.105,0-2-0.895-2-2v-2c0-1.105,0.895-2,2-2V19z" opacity=".35"></path><path d="M20,19c1.105,0,2-0.895,2-2v-2c0-1.105-0.895-2-2-2V19z" opacity=".35"></path><path d="M14.5,19h-5C8.119,19,7,17.881,7,16.5v0C7,15.119,8.119,14,9.5,14h5c1.381,0,2.5,1.119,2.5,2.5v0 C17,17.881,15.881,19,14.5,19z" opacity=".35"></path><path d="M16,6.073V6c0-2.206-1.794-4-4-4S8,3.794,8,6v0.073C5.733,7.312,4,9.5,4,12v7c0,1.657,1.343,3,3,3h10c1.657,0,3-1.343,3-3	v-7C20,9.5,18.267,7.312,16,6.073z M12,4c0.833,0,1.546,0.512,1.847,1.236C13.236,5.087,12.615,5,12,5s-1.236,0.087-1.847,0.236	C10.454,4.512,11.167,4,12,4z M7.4,10.2c2.709-2.031,6.491-2.031,9.2,0c0.442,0.331,0.531,0.958,0.2,1.4	c-0.196,0.262-0.497,0.4-0.801,0.4c-0.208,0-0.419-0.065-0.599-0.2c-2.002-1.501-4.798-1.501-6.8,0	c-0.442,0.333-1.069,0.242-1.4-0.2C6.869,11.158,6.958,10.531,7.4,10.2z M14.5,19h-5C8.119,19,7,17.881,7,16.5	C7,15.119,8.119,14,9.5,14h5c1.381,0,2.5,1.119,2.5,2.5C17,17.881,15.881,19,14.5,19z"></path><path d="M15.999,12c-0.208,0-0.419-0.065-0.599-0.2c-2.002-1.501-4.798-1.501-6.8,0c-0.442,0.333-1.069,0.242-1.4-0.2 c-0.332-0.442-0.242-1.069,0.2-1.4c2.709-2.031,6.491-2.031,9.2,0c0.442,0.331,0.531,0.958,0.2,1.4 C16.604,11.862,16.303,12,15.999,12z" opacity=".35"></path></svg>
