<svg xmlns="http://www.w3.org/2000/svg" viewBox="0 0 24 24"><path d="M13,2C7.477,2,3,6.477,3,12c0,2.254,0.749,4.33,2.009,6L12,15l2-4l3.838-7.75	C16.404,2.456,14.756,2,13,2z" opacity=".35"/><path d="M20.837,18.965L19,16c-4-1-5.396-3.773-4-4c0.312-0.051,0.893-0.059,1.462-0.051c0.904,0.012,1.685,0.637,1.904,1.515L19,16	c0.127,0.035,0.365,0,0.5,0c0.157,0,0.317-0.025,0.474-0.078C20.76,15.661,21,15,20.923,14.026c0,0-0.923-8.026-6.685-8.026H13.28	c-3.199,0-5.618,2.685-5.49,5.711c0.086,2.015-0.053,4.033-0.245,6.041l-0.26,1.715c-0.1,0.793,0.732,1.413,1.497,0.994	c2.021-1.107,4.281-1.696,6.516-1.137l4.428,1.107C20.581,20.645,21.274,19.73,20.837,18.965z"/><path d="M19,16l-0.634-2.536c-0.219-0.877-1-1.502-1.904-1.515c-0.569-0.008-1.15,0-1.462,0.051	C13.604,12.227,15,15,19,16z" opacity=".35"/></svg>