<svg xmlns="http://www.w3.org/2000/svg"
viewBox="0 0 24 24"><path d="M18.424,12.23c0-1.791,0.821-3.391,1.989-4.504c0.473-0.45,0.692-1.104,0.537-1.74l-0.004-0.015	c-0.182-0.752-0.83-1.271-1.596-1.354c-1.718-0.187-3.445-0.875-4.605-1.843c-0.564-0.47-1.247-0.774-1.98-0.774l-0.453,0	c-0.812,0-1.495,0.303-2.06,0.774C9.093,3.741,7.366,4.43,5.649,4.617C4.883,4.7,4.236,5.219,4.053,5.971L4.049,5.989	C3.895,6.622,4.111,7.274,4.581,7.724c1.174,1.123,1.995,2.733,1.995,4.506c0,1.856-0.9,3.533-2.161,4.66	c-0.403,0.36-0.47,0.962-0.14,1.391L5.3,19.615c0.086,0.112,0.221,0.178,0.365,0.178c0.38,0,1.509,0.106,2.772,0.481	c0.948,0.282,1.98,0.714,2.886,1.352c0.71,0.499,1.643,0.499,2.353,0c0.906-0.637,1.939-1.07,2.886-1.352	c1.263-0.375,2.393-0.481,2.772-0.481c0.147,0,0.286-0.07,0.371-0.187l0.978-1.344c0.299-0.411,0.229-1.017-0.146-1.36	C19.31,15.78,18.424,14.083,18.424,12.23z M16.423,8.814c-0.667,1.003-1.034,2.174-1.034,3.358c0,1.078,0.295,2.138,0.839,3.074	c0.295,0.508,0.052,1.155-0.519,1.285c-0.218,0.05-0.433,0.103-0.619,0.159c-0.827,0.246-1.574,0.575-2.235,0.982	c-0.225,0.138-0.494,0.137-0.718-0.002c-0.653-0.406-1.399-0.735-2.225-0.98c-0.191-0.057-0.412-0.112-0.636-0.163	c-0.573-0.131-0.814-0.782-0.514-1.29c0.551-0.934,0.851-1.99,0.851-3.064c0-1.181-0.369-2.352-1.038-3.358	C8.312,8.416,8.498,7.89,8.958,7.762c1.075-0.3,2.068-0.8,2.841-1.445c0.239-0.199,0.426-0.225,0.562-0.225h0l0.336,0	c0.205,0,0.404,0.141,0.505,0.225c0.772,0.644,1.764,1.144,2.838,1.443C16.501,7.889,16.688,8.416,16.423,8.814z"></path><path d="M16.423,8.814c0.265-0.398,0.078-0.925-0.381-1.053c-1.074-0.3-2.066-0.799-2.838-1.443	c-0.101-0.084-0.3-0.225-0.505-0.225l-0.336,0h0c-0.137,0-0.324,0.026-0.563,0.225c-0.773,0.645-1.766,1.145-2.841,1.444	C8.498,7.89,8.312,8.416,8.577,8.815c0.669,1.006,1.038,2.177,1.038,3.358c0,1.074-0.3,2.13-0.851,3.064	c-0.3,0.508-0.06,1.159,0.514,1.29c0.223,0.051,0.445,0.107,0.636,0.163c0.825,0.245,1.572,0.574,2.225,0.98	c0.224,0.139,0.493,0.14,0.718,0.002c0.661-0.407,1.408-0.736,2.235-0.982c0.186-0.055,0.401-0.109,0.619-0.159	c0.571-0.13,0.814-0.777,0.519-1.285c-0.544-0.936-0.839-1.996-0.839-3.074C15.389,10.988,15.756,9.817,16.423,8.814z" opacity=".35"></path></svg>