<svg xmlns="http://www.w3.org/2000/svg"
viewBox="0 0 24 24"
><path d="M12,15l-3-3l-3.732,3.732C4.815,15.28,4.19,15,3.5,15C2.119,15,1,16.119,1,17.5	C1,18.881,2.119,20,3.5,20c0.198,0,0.388-0.029,0.572-0.072C4.029,20.112,4,20.302,4,20.5C4,21.881,5.119,23,6.5,23S9,21.881,9,20.5	c0-0.69-0.28-1.315-0.732-1.768L12,15z" opacity=".35"></path><path d="M15.031,2c-1.867-0.008-3.593,0.893-4.877,2.248c-1.565,1.653-2.102,3.156-2.15,4.543c-0.03,0.855-0.216,1.688-0.595,2.455	c-0.409,0.829-0.54,1.819-0.26,2.855c0.357,1.323,1.427,2.393,2.75,2.75c1.036,0.28,2.026,0.149,2.855-0.26	c0.767-0.379,1.601-0.565,2.455-0.595c1.387-0.048,2.89-0.586,4.543-2.15c1.356-1.284,2.256-3.01,2.248-4.877	C21.983,5.128,18.872,2.017,15.031,2z"></path></svg>