<svg xmlns="http://www.w3.org/2000/svg" x="0px" y="0px"
viewBox="0 0 24 24"><path d="M3.742,16.675c-0.989,0.989-0.989,2.593,0,3.583c0.989,0.989,2.593,0.989,3.583,0	c0.322-0.322,3.004-3.004,8.133-8.133l-3.583-3.583C6.746,13.671,4.064,16.353,3.742,16.675z" opacity=".35"></path><path d="M18.81,16.247L9.637,7.073c-0.849-0.849-0.849-2.226,0-3.075l2.361-2.361c0.849-0.849,2.226-0.849,3.075,0l5.559,5.559	c0.994,0.994,1.393,2.435,1.052,3.799l-1.197,4.787C20.299,16.536,19.36,16.796,18.81,16.247z"></path></svg>