<svg xmlns="http://www.w3.org/2000/svg" x="0px" y="0px"
viewBox="0 0 24 24"
><path d="M17.547,6.453c0.485,0.485,0.9,1.008,1.283,1.546l0.139-0.139c0.781-0.781,0.781-2.047,0-2.828 c-0.781-0.781-2.047-0.781-2.828,0L16.001,5.17C16.539,5.553,17.062,5.968,17.547,6.453z"></path><path d="M14.705,9.295c-0.48-0.48-0.977-0.924-1.482-1.346l-10.16,10.16c-0.781,0.781-0.781,2.047,0,2.828 c0.781,0.781,2.047,0.781,2.828,0l10.16-10.16C15.629,10.272,15.185,9.775,14.705,9.295z"></path><path d="M14.705,9.295c2.338,2.338,3.99,5.003,4.887,7.61c0.191,0.556,0.982,0.528,1.118-0.044	c0.83-3.49-0.246-7.49-3.163-10.407S10.63,2.459,7.139,3.29C6.567,3.426,6.539,4.217,7.095,4.408	C9.702,5.305,12.367,6.957,14.705,9.295z" opacity=".35"></path></svg>