<svg xmlns="http://www.w3.org/2000/svg" viewBox="0 0 24 24"><path d="M15.934,3.574l-2.82-1.128c-0.715-0.286-1.513-0.286-2.228,0l-2.82,1.128c-0.684,0.274-1.447,0.274-2.131,0l0,0 C4.05,2.82,2,4.208,2,6.238v11.82c0,1.173,0.714,2.228,1.803,2.664l2.131,0.852c0.684,0.274,1.447,0.274,2.131,0l2.82-1.128 c0.715-0.286,1.513-0.286,2.228,0l2.82,1.128c0.684,0.274,1.447,0.274,2.131,0l2.131-0.852C21.286,20.286,22,19.231,22,18.058 V6.238c0-2.03-2.05-3.418-3.934-2.664l0,0C17.382,3.847,16.618,3.847,15.934,3.574z" opacity=".35"/><circle cx="5" cy="14" r="1"/><circle cx="9" cy="9" r="1"/><circle cx="7" cy="11" r="1"/><circle cx="13" cy="12" r="1"/><circle cx="12" cy="9" r="1"/><path d="M18.914,12.5l0.793-0.793c0.391-0.391,0.391-1.023,0-1.414s-1.023-0.391-1.414,0L17.5,11.086l-0.793-0.793	c-0.391-0.391-1.023-0.391-1.414,0s-0.391,1.023,0,1.414l0.793,0.793l-0.793,0.793c-0.391,0.391-0.391,1.023,0,1.414	C15.488,14.902,15.744,15,16,15s0.512-0.098,0.707-0.293l0.793-0.793l0.793,0.793C18.488,14.902,18.744,15,19,15	s0.512-0.098,0.707-0.293c0.391-0.391,0.391-1.023,0-1.414L18.914,12.5z"/></svg>