<svg xmlns="http://www.w3.org/2000/svg"
viewBox="0 0 24 24"
><path d="M4.87868,6.12132,7.12132,3.87868A3,3,0,0,1,9.24264,3h1.92893a2,2,0,0,0,1.41422-.58579l.27891-.27891a3,3,0,0,1,2.70967-.82043l2.62175.52435A1,1,0,0,1,19,2.8198v1.46a2.07635,2.07635,0,0,0,.40105,1.19672A3.03834,3.03834,0,0,1,20,7.17939v3.04916a3.00007,3.00007,0,0,0,.31672,1.34164l.36656.73312A3.00007,3.00007,0,0,1,21,13.645V16a2,2,0,0,1-.71963,1.53644l-3.446,3.76822A3,3,0,0,1,14.91385,22H9.7082a3.00007,3.00007,0,0,1-1.34164-.31672l-3.7082-1.8541A3,3,0,0,1,3,17.1459V12.7082a3.00007,3.00007,0,0,1,.31672-1.34164l.47213-.94427A2,2,0,0,0,4,9.52786V8.24264A3,3,0,0,1,4.87868,6.12132Z" opacity=".35"></path><path d="M17.15165,6.62217l.01885-2.33893a1.02276,1.02276,0,0,0-.70543-.98394l-.78041-.25109a1.00413,1.00413,0,0,0-.99311.22282l-1.1827,1.10239a2.01242,2.01242,0,0,1-1.37232.542H9.7144a2.01349,2.01349,0,0,0-1.43192.59988L6.60531,7.2117a2.05932,2.05932,0,0,0-.5929,1.4477v1.85831l-.69148,1.39778A3.09963,3.09963,0,0,0,5,13.28962v3.68624a1.01562,1.01562,0,0,0,1.211,1.00391l3.17554-.64225a3.02083,3.02083,0,0,0,1.22668-.55463l2.48609-1.88552,2.13375-.53943a2.02941,2.02941,0,0,0,1.32-1.07074L17.78623,10.793a2.06853,2.06853,0,0,0,.10986-1.56321l-.6406-1.9434A2.06863,2.06863,0,0,1,17.15165,6.62217ZM10,13,8,12,9,9l2,2Zm6-3-2,2L12,9l1-2,2,1Z"></path></svg>