<svg xmlns="http://www.w3.org/2000/svg" x="0px" y="0px"
viewBox="0 0 24 24"><path d="M18,21H6c-1.657,0-3-1.343-3-3V7h18v11C21,19.657,19.657,21,18,21z" opacity=".35"></path><path d="M17,21h-5v-7c0-0.552,0.448-1,1-1h3c0.552,0,1,0.448,1,1V21z"></path><path d="M9,17H7c-0.552,0-1-0.448-1-1v-2c0-0.552,0.448-1,1-1h2c0.552,0,1,0.448,1,1v2C10,16.552,9.552,17,9,17z"></path><path d="M21.895,8.553L21,6.764V6c0-1.657-1.343-3-3-3H6C4.343,3,3,4.343,3,6v0.764L2.105,8.553	C1.903,8.957,1.997,9.445,2.334,9.746C2.478,9.874,3.787,11,5.5,11c1.108,0,2.048-0.472,2.612-0.839C8.887,10.495,10.332,11,12,11	s3.113-0.505,3.888-0.839C16.452,10.528,17.392,11,18.5,11c1.713,0,3.022-1.126,3.166-1.254C22.003,9.445,22.097,8.957,21.895,8.553	z"></path></svg>