<svg xmlns="http://www.w3.org/2000/svg"
viewBox="0 0 24 24"
><path d="M6,13L16.358,2.642c0.419-0.419,0.952-0.704,1.533-0.82l2.913-0.583C21.423,1.115,22,1.589,22,2.22v2.62 c0,0.746-0.278,1.466-0.78,2.018L11,18L6,13z" opacity=".35"></path><path d="M12.582,18.418l-7-7c-0.586-0.586-1.535-0.586-2.121,0c-0.586,0.585-0.586,1.536,0,2.121L5.9,15.979l-3.461,3.461	c-0.586,0.585-0.586,1.536,0,2.121C2.732,21.854,3.116,22,3.5,22s0.768-0.146,1.061-0.439L8.021,18.1l2.439,2.439	c0.293,0.293,0.677,0.439,1.061,0.439s0.768-0.146,1.061-0.439C13.168,19.954,13.168,19.003,12.582,18.418z"></path></svg>